<?xml version="1.0" standalone="no"?>
<!DOCTYPE svg PUBLIC "-//W3C//DTD SVG 20010904//EN"
 "http://www.w3.org/TR/2001/REC-SVG-20010904/DTD/svg10.dtd">
<svg version="1.0" xmlns="http://www.w3.org/2000/svg"
 width="2200.000000pt" height="2200.000000pt" viewBox="0 0 2200.000000 2200.000000"
 preserveAspectRatio="xMidYMid meet">
<metadata>
Created by potrace 1.11, written by Peter Selinger 2001-2013
</metadata>
<g transform="translate(0.000000,2200.000000) scale(0.100000,-0.100000)"
fill="#000000" stroke="none">
<path d="M10910 21960 c-47 -21 -107 -49 -135 -61 -27 -12 -83 -37 -123 -55
-41 -19 -76 -34 -78 -34 -2 0 -43 -18 -90 -40 -47 -22 -88 -40 -90 -40 -3 0
-43 -18 -90 -40 -47 -22 -88 -40 -91 -40 -3 0 -43 -18 -89 -40 -47 -22 -86
-40 -88 -40 -3 0 -33 -13 -68 -29 -35 -16 -187 -84 -338 -151 -309 -137 -312
-138 -395 -175 -33 -15 -197 -88 -365 -162 -168 -74 -327 -145 -355 -158 -27
-13 -93 -42 -145 -65 -52 -23 -123 -55 -158 -71 -35 -16 -65 -29 -67 -29 -3 0
-33 -13 -67 -29 -35 -16 -162 -73 -283 -126 -121 -53 -242 -107 -270 -120 -57
-26 -90 -40 -270 -120 -71 -32 -148 -66 -170 -75 -22 -10 -101 -45 -175 -78
-74 -33 -170 -76 -213 -96 -43 -20 -80 -36 -83 -36 -2 0 -38 -16 -80 -35 -41
-19 -77 -35 -79 -35 -2 0 -41 -17 -87 -39 -45 -21 -111 -51 -145 -65 -35 -14
-87 -37 -115 -50 -91 -42 -250 -112 -328 -146 -41 -18 -97 -43 -125 -55 -27
-13 -374 -167 -770 -343 -396 -176 -745 -331 -775 -345 -76 -34 -115 -52 -355
-157 -115 -51 -243 -108 -283 -126 -40 -19 -74 -34 -77 -34 -2 0 -32 -13 -67
-29 -52 -24 -234 -105 -568 -253 -25 -11 -63 -28 -85 -38 -22 -10 -80 -37
-130 -58 -49 -22 -120 -54 -158 -71 -37 -17 -69 -31 -72 -31 -2 0 -32 -13 -67
-29 -35 -16 -103 -47 -153 -69 l-90 -39 0 -3189 c0 -2814 3 -3434 20 -3574 2
-19 6 -82 10 -140 3 -58 8 -123 10 -145 3 -22 7 -67 10 -100 6 -69 15 -156 20
-200 2 -16 7 -52 10 -80 33 -269 38 -307 66 -485 18 -114 71 -410 84 -470 3
-14 12 -60 21 -103 8 -43 31 -146 50 -230 19 -84 39 -170 44 -192 21 -98 131
-508 169 -630 173 -560 321 -968 509 -1405 191 -444 433 -932 655 -1320 65
-114 225 -383 263 -442 13 -21 35 -55 48 -75 605 -957 1346 -1845 2160 -2588
60 -55 117 -107 126 -115 8 -8 31 -28 50 -44 19 -15 53 -45 75 -65 22 -20 67
-58 100 -85 33 -27 65 -54 70 -60 9 -10 279 -225 405 -323 70 -53 232 -173
330 -242 175 -123 740 -491 755 -491 2 0 40 -22 85 -50 45 -27 83 -50 84 -50
2 0 46 -24 97 -53 131 -74 328 -178 494 -260 154 -76 433 -207 442 -207 3 0
24 -9 47 -20 44 -21 279 -119 336 -140 19 -7 49 -19 65 -26 40 -17 219 -82
385 -139 74 -25 146 -50 160 -55 103 -37 600 -178 722 -205 12 -2 67 7 122 21
132 33 340 91 391 108 22 7 81 26 130 41 198 61 669 227 750 265 11 5 88 37
170 70 83 34 178 75 213 91 35 16 65 29 66 29 20 0 714 347 761 380 6 4 46 27
90 50 235 127 736 443 1023 647 172 122 500 369 522 393 3 3 39 32 80 65 41
32 80 64 86 70 7 5 31 26 54 44 23 19 48 40 54 45 6 6 58 51 116 101 101 86
134 115 264 235 239 219 539 521 761 764 50 55 95 104 100 110 42 44 299 347
365 429 8 11 20 24 25 31 60 67 339 434 480 631 163 227 462 686 576 882 322
556 517 930 699 1343 21 47 47 105 58 130 74 160 262 640 360 920 85 242 256
800 277 905 2 6 15 55 30 110 15 55 29 108 31 118 2 10 5 26 8 35 3 9 7 28 10
42 3 14 17 75 31 135 14 61 27 119 29 130 72 341 141 727 170 950 16 122 36
288 41 340 3 33 8 76 10 95 7 60 14 122 20 200 3 41 8 98 10 125 2 28 7 100
11 160 4 61 9 135 12 165 2 30 6 1525 9 3323 l4 3267 -43 19 c-24 10 -63 27
-88 39 -25 11 -128 57 -230 102 -102 45 -203 90 -225 100 -22 10 -83 37 -135
60 -52 23 -113 50 -135 60 -22 10 -83 37 -135 60 -52 23 -113 50 -135 60 -83
37 -590 262 -855 380 -151 67 -293 130 -315 140 -22 10 -96 43 -165 73 -69 30
-150 66 -180 80 -30 14 -118 53 -195 87 -77 34 -158 70 -180 80 -22 10 -184
82 -360 160 -176 78 -338 150 -360 160 -34 15 -344 153 -440 195 -16 8 -57 26
-90 40 -33 15 -80 36 -105 47 -25 11 -58 26 -75 33 -16 8 -97 44 -180 80 -82
37 -170 76 -195 87 -52 23 -54 24 -255 113 -363 162 -396 176 -463 206 -34 16
-64 29 -67 29 -2 0 -43 18 -90 40 -47 22 -88 40 -90 40 -1 0 -42 18 -89 40
-47 22 -88 40 -90 40 -3 0 -44 18 -91 40 -48 22 -135 61 -194 87 -58 25 -133
58 -166 73 -33 15 -502 224 -1042 463 -540 240 -1002 445 -1025 456 -78 36
-521 231 -522 230 0 0 -39 -18 -86 -39z m390 -3974 c14 -2 52 -7 85 -11 33 -3
67 -8 75 -10 8 -3 33 -7 55 -11 22 -3 72 -12 110 -21 39 -8 78 -16 87 -18 68
-14 217 -62 388 -124 255 -92 616 -310 860 -520 111 -96 292 -282 360 -371 19
-25 38 -47 41 -50 23 -19 168 -234 235 -346 138 -235 293 -629 330 -844 3 -14
7 -32 10 -42 5 -18 21 -111 30 -173 3 -22 7 -51 10 -65 25 -153 25 -684 -1
-762 -2 -7 -6 -37 -10 -67 -3 -29 -7 -56 -9 -60 -2 -3 -7 -26 -10 -51 -10 -75
-54 -245 -98 -379 -122 -374 -317 -717 -583 -1026 -178 -207 -465 -453 -678
-581 -27 -16 -63 -38 -80 -48 -251 -150 -669 -307 -932 -350 -83 -14 -101 -17
-115 -21 -15 -4 -75 -11 -210 -24 -77 -8 -491 -6 -545 3 -16 2 -57 7 -90 11
-33 4 -67 8 -75 10 -8 2 -53 10 -100 19 -118 22 -116 22 -205 46 -44 12 -84
22 -90 24 -19 4 -150 48 -170 56 -11 5 -51 21 -90 35 -38 15 -125 54 -192 86
-776 376 -1352 1067 -1583 1898 -30 109 -65 273 -76 356 -3 22 -7 51 -10 65
-25 148 -25 620 1 760 2 14 6 43 9 65 3 22 7 49 9 60 3 11 8 40 12 65 20 121
91 369 152 525 63 163 157 348 257 505 43 69 153 227 171 246 5 7 37 44 70 84
105 127 328 342 450 435 11 8 37 28 59 45 33 26 130 91 231 155 250 160 700
334 985 380 25 4 54 9 65 12 44 9 141 21 235 29 41 4 77 8 78 10 6 4 462 -5
492 -10z m295 -7470 c33 -3 103 -8 155 -11 201 -12 246 -16 390 -30 14 -1 57
-6 95 -9 39 -4 86 -9 105 -11 19 -3 58 -7 85 -10 28 -3 68 -8 90 -12 22 -3 51
-7 65 -9 82 -10 313 -45 385 -58 11 -2 38 -7 60 -11 273 -47 702 -146 974
-225 1024 -296 1837 -726 2362 -1250 322 -321 509 -631 595 -985 47 -195 53
-351 15 -430 -85 -180 -261 -523 -323 -628 -15 -26 -28 -50 -28 -52 0 -2 -55
-95 -121 -207 -150 -250 -506 -788 -664 -1003 -106 -144 -359 -467 -396 -505
-8 -8 -39 -44 -69 -80 -150 -177 -282 -319 -485 -524 -250 -251 -409 -396
-710 -648 -45 -37 -154 -125 -185 -148 -18 -14 -38 -30 -44 -35 -12 -12 -311
-231 -364 -267 -18 -13 -39 -28 -45 -33 -20 -17 -277 -186 -382 -251 -512
-319 -1117 -622 -1610 -809 -55 -20 -109 -41 -120 -46 -51 -23 -381 -137 -417
-144 -40 -8 -688 234 -965 361 -29 13 -79 36 -110 50 -268 121 -605 299 -893
471 -96 57 -184 109 -195 116 -42 26 -412 272 -450 299 -69 51 -335 247 -348
258 -7 5 -66 53 -132 106 -112 90 -199 162 -251 209 -12 11 -40 34 -61 52 -21
17 -54 46 -73 64 -541 495 -938 929 -1316 1439 -298 401 -684 997 -881 1360
-17 30 -44 80 -61 111 -35 64 -184 360 -233 464 -29 60 -34 81 -33 145 0 72
11 197 18 209 2 3 7 24 10 46 7 43 51 197 66 230 5 11 20 48 34 82 112 272
375 615 660 858 207 177 487 371 726 503 25 13 70 38 100 56 30 17 57 31 60
31 3 1 64 30 135 66 272 136 621 274 985 391 199 63 582 169 669 185 14 2 51
10 81 18 99 26 455 94 624 121 21 3 48 7 59 10 11 2 57 8 101 14 81 11 94 13
171 24 50 8 91 12 180 21 39 4 72 9 75 10 3 2 46 6 95 10 50 4 106 8 125 10
19 2 78 7 130 10 52 4 113 8 135 10 22 2 114 7 205 10 91 4 167 9 169 11 5 5
906 -4 976 -10z"/>
</g>
</svg>
